<svg width="31" height="30" viewBox="0 0 31 30" fill="none" xmlns="http://www.w3.org/2000/svg">
<path d="M28.1665 7.24977C27.2269 7.65739 26.2333 7.92685 25.2165 8.04977C26.2892 7.40892 27.0931 6.40075 27.479 5.21227C26.4709 5.81235 25.3675 6.23514 24.2165 6.46227C23.4472 5.62799 22.4227 5.07264 21.3038 4.88334C20.1848 4.69403 19.0347 4.88147 18.0337 5.41626C17.0328 5.95105 16.2377 6.80294 15.7731 7.83832C15.3084 8.8737 15.2006 10.034 15.4665 11.1373C13.4283 11.0342 11.4346 10.5035 9.61482 9.5796C7.79509 8.65574 6.19006 7.35939 4.904 5.77477C4.45293 6.56248 4.2159 7.45455 4.2165 8.36227C4.2149 9.20525 4.42178 10.0355 4.8187 10.7792C5.21562 11.5229 5.79028 12.1569 6.4915 12.6248C5.67648 12.6026 4.87886 12.3839 4.1665 11.9873V12.0498C4.17261 13.2309 4.5865 14.3736 5.33815 15.2847C6.0898 16.1958 7.13307 16.8193 8.2915 17.0498C7.84557 17.1855 7.3826 17.257 6.9165 17.2623C6.59387 17.2585 6.27203 17.2292 5.954 17.1748C6.28389 18.1908 6.92228 19.0787 7.78035 19.715C8.63841 20.3512 9.67347 20.7042 10.7415 20.7248C8.93801 22.1439 6.71136 22.9183 4.4165 22.9248C3.99867 22.9261 3.58117 22.9011 3.1665 22.8498C5.50954 24.3626 8.24002 25.1657 11.029 25.1623C12.9536 25.1823 14.8629 24.8185 16.6454 24.0924C18.4279 23.3662 20.0478 22.2921 21.4105 20.9329C22.7732 19.5737 23.8515 17.9565 24.5822 16.1759C25.3129 14.3953 25.6816 12.4869 25.6665 10.5623C25.6665 10.3498 25.6665 10.1248 25.6665 9.89977C26.6474 9.16829 27.4933 8.27155 28.1665 7.24977Z" fill="white"/>
</svg>
