<svg width="31" height="30" viewBox="0 0 31 30" fill="none" xmlns="http://www.w3.org/2000/svg">
<path d="M13.3394 13.2871H13.3392C12.9902 13.2871 12.6555 13.4258 12.4087 13.6726C12.1619 13.9195 12.0232 14.2542 12.0232 14.6033C12.0232 14.9523 12.1619 15.2871 12.4087 15.5339C12.6555 15.7807 12.9903 15.9193 13.3393 15.9193C13.6884 15.9193 14.0231 15.7807 14.2699 15.5339C14.5167 15.2871 14.6554 14.9523 14.6554 14.6033C14.6554 14.2542 14.5168 13.9195 14.27 13.6726C14.0232 13.4258 13.6884 13.2871 13.3394 13.2871ZM18.0322 13.2871C17.7448 13.2628 17.4568 13.3258 17.2057 13.4678C16.9547 13.6099 16.7525 13.8245 16.6254 14.0835C16.4984 14.3424 16.4525 14.6337 16.4938 14.9192C16.535 15.2046 16.6615 15.471 16.8567 15.6834C17.0518 15.8958 17.3066 16.0443 17.5875 16.1095C17.8685 16.1747 18.1626 16.1535 18.4314 16.0488C18.7001 15.9441 18.931 15.7606 19.0938 15.5225C19.2565 15.2844 19.3436 15.0026 19.3436 14.7142C19.3513 14.5344 19.3234 14.3548 19.2617 14.1857C19.1999 14.0167 19.1054 13.8614 18.9836 13.7289C18.8619 13.5964 18.7152 13.4891 18.5519 13.4133C18.3887 13.3375 18.2121 13.2946 18.0322 13.2871ZM24.2807 2.5H7.05231C6.70533 2.50082 6.3619 2.56998 6.04165 2.70353C5.72139 2.83708 5.43058 3.03241 5.18582 3.27836C4.94106 3.52431 4.74715 3.81606 4.61515 4.13696C4.48315 4.45786 4.41565 4.80162 4.41651 5.1486V22.5314C4.41567 22.8784 4.48317 23.2222 4.61518 23.543C4.74718 23.8639 4.9411 24.1557 5.18586 24.4016C5.43062 24.6476 5.72142 24.8429 6.04167 24.9764C6.36192 25.11 6.70533 25.1791 7.05231 25.18H21.6322L20.9508 22.8014L22.5964 24.3314L24.1522 25.7714L26.9165 28.2143V5.1486C26.9174 4.80162 26.8499 4.45786 26.7179 4.13696C26.5859 3.81606 26.392 3.52431 26.1472 3.27836C25.9024 3.03241 25.6116 2.83708 25.2914 2.70353C24.9711 2.56998 24.6277 2.50082 24.2807 2.5ZM19.3179 19.2914V19.2915C19.3179 19.2915 18.855 18.7386 18.4692 18.25C19.4012 18.0305 20.2256 17.4886 20.7965 16.72C20.3339 17.0279 19.8379 17.2824 19.3179 17.4785C18.7198 17.7338 18.0942 17.9193 17.4536 18.0314C16.3525 18.2341 15.2232 18.2298 14.1237 18.0186C13.4781 17.8922 12.8455 17.7072 12.2336 17.4657C11.9111 17.3417 11.5975 17.1956 11.295 17.0286C11.2564 17.0028 11.218 16.99 11.1794 16.9643C11.16 16.9547 11.1426 16.9416 11.1279 16.9257C10.8966 16.7972 10.7678 16.7071 10.7678 16.7071C11.3181 17.4596 12.114 17.9962 13.0179 18.2243C12.6323 18.7129 12.1565 19.2914 12.1565 19.2914C11.3928 19.312 10.6357 19.1445 9.95192 18.8037C9.26813 18.4629 8.67858 17.9593 8.23517 17.3371C8.27692 14.7306 8.90995 12.1676 10.0865 9.84139C11.122 9.02817 12.3843 8.55646 13.6993 8.49139L13.8278 8.64574C12.5906 8.95186 11.4362 9.52692 10.4465 10.33C10.4465 10.33 10.7294 10.1757 11.205 9.95712C12.1293 9.53522 13.1143 9.26188 14.1238 9.14719C14.1958 9.13221 14.2689 9.12358 14.3424 9.1214C15.204 9.00917 16.0759 9.00056 16.9395 9.09576C18.2976 9.25083 19.6123 9.67011 20.8095 10.33C19.87 9.56524 18.7789 9.00868 17.6082 8.69712L17.7881 8.49151C19.1032 8.55653 20.3655 9.02825 21.401 9.84151C22.5776 12.1677 23.2107 14.7307 23.2525 17.3372C22.8054 17.9588 22.2133 18.4617 21.5276 18.8023C20.8419 19.1429 20.0833 19.3108 19.3179 19.2914Z" fill="white"/>
</svg>
