<svg width="41" height="41" viewBox="0 0 41 41" fill="none" xmlns="http://www.w3.org/2000/svg">
<path d="M22.4317 32.4307C22.4672 28.7954 21.5456 25.8392 20.3732 25.8277C19.2008 25.8163 18.2215 28.754 18.1861 32.3892C18.1505 36.0246 19.0721 38.9809 20.2445 38.9923C21.4169 39.0038 22.3962 36.0661 22.4317 32.4307Z" fill="white"/>
<path d="M15.6323 31.6051C17.6278 28.5661 18.4509 25.5809 17.4709 24.9374C16.4908 24.2939 14.0786 26.2357 12.0832 29.2746C10.0878 32.3136 9.26467 35.2987 10.2447 35.9424C11.2248 36.5859 13.6369 34.644 15.6323 31.6051Z" fill="white"/>
<path d="M10.3503 27.245C13.672 25.7675 15.9785 23.7013 15.5019 22.63C15.0254 21.5588 11.9464 21.8881 8.62467 23.3657C5.30297 24.8432 2.99648 26.9094 3.47299 27.9807C3.94949 29.052 7.02855 28.7226 10.3503 27.245Z" fill="white"/>
<path d="M15.1032 19.6258C15.2816 18.467 12.5133 17.0793 8.92018 16.5262C5.32696 15.9731 2.26952 16.4643 2.09116 17.6231C1.91281 18.7819 4.68107 20.1695 8.27425 20.7226C11.8674 21.2757 14.9249 20.7846 15.1032 19.6258Z" fill="white"/>
<path d="M16.3936 16.8652C17.17 15.9868 15.5911 13.3229 12.8671 10.9154C10.143 8.50784 7.30525 7.26834 6.52881 8.14687C5.75238 9.02541 7.33126 11.6893 10.0554 14.0968C12.7794 16.5043 15.6172 17.7438 16.3936 16.8652Z" fill="white"/>
<path d="M18.9625 15.252C20.0907 14.9328 20.2028 11.8381 19.2129 8.34001C18.2231 4.84187 16.5061 2.26487 15.3779 2.5841C14.2497 2.90334 14.1377 5.99793 15.1275 9.4961C16.1174 12.9942 17.8344 15.5712 18.9625 15.252Z" fill="white"/>
<path d="M25.9388 9.60487C26.9975 6.12692 26.9465 3.03072 25.8248 2.6893C24.7032 2.34787 22.9357 4.89052 21.877 8.36846C20.8184 11.8464 20.8694 14.9426 21.991 15.284C23.1127 15.6254 24.8802 13.0828 25.9388 9.60487Z" fill="white"/>
<path d="M30.924 14.3043C33.6946 11.9505 35.3253 9.31801 34.5661 8.4245C33.807 7.53098 30.9456 8.7148 28.175 11.0685C25.4044 13.4224 23.7738 16.0549 24.5329 16.9484C25.292 17.8419 28.1534 16.6582 30.924 14.3043Z" fill="white"/>
<path d="M32.572 20.9546C36.1754 20.4725 38.9704 19.1396 38.8149 17.9775C38.6595 16.8154 35.6123 16.2642 32.0089 16.7462C28.4056 17.2283 25.6105 18.5611 25.766 19.7233C25.9214 20.8853 28.9686 21.4367 32.572 20.9546Z" fill="white"/>
<path d="M37.2206 28.3128C37.7181 27.2512 35.4528 25.1399 32.1609 23.5972C28.869 22.0544 25.797 21.6644 25.2995 22.7261C24.8019 23.7877 27.0672 25.899 30.3592 27.4418C33.651 28.9845 36.723 29.3745 37.2206 28.3128Z" fill="white"/>
<path d="M30.2961 36.1461C31.2886 35.5221 30.5245 32.5212 28.5894 29.4435C26.6543 26.3658 24.2809 24.3768 23.2884 25.0009C22.2958 25.6249 23.0599 28.6258 24.995 31.7035C26.9301 34.7812 29.3035 36.7702 30.2961 36.1461Z" fill="white"/>
</svg>
