<svg width="42" height="48" viewBox="0 0 42 48" fill="none" xmlns="http://www.w3.org/2000/svg">
<g clip-path="url(#clip0_45_482)">
<path fill-rule="evenodd" clip-rule="evenodd" d="M30.8798 14.6726C34.6589 16.5498 37.3297 18.979 36.502 22.9209C35.8819 25.789 34.2828 27.0342 32.1914 27.2907C34.8691 29.166 36.0818 31.6685 34.469 35.6079C32.4601 40.5483 28.4931 40.542 23.3163 38.9139L21.7111 44.1926L18.712 43.074L20.3172 37.7954C19.9916 37.6685 19.6475 37.5445 19.293 37.419C18.8222 37.25 18.3357 37.075 17.8538 36.8775L16.2486 42.1562L13.2541 41.0369L14.8594 35.7583L8.90249 33.386L10.5852 29.7206C10.5852 29.7206 12.8343 30.6213 12.8009 30.5797C13.6354 30.8874 14.0775 30.346 14.2666 29.9503L16.8358 21.4902L18.6992 15.4821C18.8005 14.8203 18.6333 13.917 17.4149 13.4363C17.4998 13.3952 15.2181 12.6158 15.2181 12.6158L16.29 9.0812L22.4386 11.3722L24.0105 6.20253L27.1061 7.35723L25.5342 12.5269C26.1383 12.7337 26.7252 12.9609 27.3206 13.1888L27.9102 13.4145L29.4801 8.24408L32.495 9.36853L30.8798 14.6726ZM22.1556 22.2413L22.304 22.3017C24.1012 23.0721 29.4291 25.3473 30.5096 21.8353C31.5229 18.4925 26.8905 16.8788 24.7407 16.127C24.4847 16.0383 24.264 15.963 24.0933 15.8966L22.1536 22.2405L22.1556 22.2413ZM19.2435 32.6917L18.9829 32.5819L20.9226 26.238C21.1123 26.3139 21.352 26.3988 21.631 26.4985C24.1661 27.4116 29.8284 29.4476 28.7736 32.804C27.7367 36.2958 21.4569 33.6301 19.2435 32.6917Z" fill="white"/>
</g>
<defs>
<clipPath id="clip0_45_482">
<rect width="42" height="48" fill="white"/>
</clipPath>
</defs>
</svg>
