<svg width="28" height="28" viewBox="0 0 28 28" fill="none" xmlns="http://www.w3.org/2000/svg">
<path d="M7.52252 20.5947V22.6093L8.89465 21.1342L11.7992 18.0117L11.7993 18.0117L11.8042 18.0063C11.8258 17.9826 11.847 17.9687 11.8641 17.9611C11.8809 17.9535 11.8956 17.951 11.9083 17.9512C11.921 17.9513 11.936 17.9541 11.9531 17.9623C11.9706 17.9706 11.992 17.9853 12.0136 18.0099C12.0353 18.0347 12.0561 18.0682 12.0711 18.1104C12.0861 18.1525 12.0942 18.1998 12.0933 18.2488C12.0924 18.2978 12.0828 18.3443 12.0666 18.3851C12.0504 18.4259 12.029 18.4576 12.0073 18.4805L12.0073 18.4805L12.0023 18.4858L7.4374 23.3912L7.43733 23.3913C7.39566 23.436 7.35744 23.4447 7.33581 23.4447C7.31418 23.4447 7.27596 23.436 7.23429 23.3913L7.23423 23.3912L2.66934 18.4858L2.66936 18.4858L2.66434 18.4805C2.64261 18.4576 2.62125 18.4259 2.60506 18.3851C2.58885 18.3443 2.57918 18.2978 2.57833 18.2488C2.57747 18.1998 2.5855 18.1525 2.60053 18.1104C2.61555 18.0682 2.63628 18.0347 2.65802 18.0099C2.67962 17.9853 2.70102 17.9706 2.71848 17.9623C2.73564 17.9541 2.75063 17.9513 2.76332 17.9512C2.77599 17.951 2.79073 17.9535 2.80754 17.9611C2.82464 17.9687 2.84579 17.9826 2.86738 18.0063L2.86736 18.0063L2.87264 18.012L5.77852 21.133L7.15041 22.6065V20.5932V2.94384C7.15041 2.84229 7.18759 2.75906 7.23255 2.7093C7.27511 2.6622 7.31456 2.65328 7.33646 2.65328C7.35837 2.65328 7.39782 2.6622 7.44038 2.7093C7.48534 2.75906 7.52252 2.84229 7.52252 2.94384V20.5947ZM18.9725 2.70683L18.9726 2.70675C19.0142 2.66197 19.0525 2.65335 19.0741 2.65335C19.0957 2.65335 19.134 2.66196 19.1756 2.70675L19.1757 2.70683L23.7371 7.60845C23.781 7.65756 23.8175 7.73885 23.8184 7.83844C23.8193 7.93931 23.7834 8.02305 23.7387 8.07394C23.6963 8.12229 23.6563 8.13215 23.6344 8.13262C23.6129 8.13308 23.5754 8.12544 23.534 8.08256L20.6328 4.96513L19.2608 3.49086V5.50478V23.1542C19.2608 23.2557 19.2236 23.339 19.1787 23.3887C19.1361 23.4358 19.0967 23.4447 19.0748 23.4447C19.0528 23.4447 19.0134 23.4358 18.9708 23.3887C18.9259 23.339 18.8887 23.2557 18.8887 23.1542V5.50478V3.49152L17.5168 4.965L14.6142 8.08255C14.5728 8.12544 14.5353 8.13308 14.5139 8.13262C14.4919 8.13215 14.4519 8.12229 14.4095 8.07394C14.3649 8.02305 14.3289 7.93932 14.3298 7.83844C14.3307 7.73884 14.3672 7.65755 14.4111 7.60844L18.9725 2.70683Z" fill="white" stroke="white" stroke-width="1.58427"/>
</svg>
