<svg width="253" height="47" viewBox="0 0 253 47" fill="none" xmlns="http://www.w3.org/2000/svg">
<path d="M109.247 38V9.67518H128.997V15.235H116.093V21.0438H127.987V26.6175H116.093V32.4401H128.997V38H109.247ZM139.038 16.7564L142.537 23.7546L146.16 16.7564H152.979L147.045 27.3782L153.2 38H146.437L142.537 30.9465L138.733 38H131.873L138.042 27.3782L132.178 16.7564H139.038ZM162.829 25.8845V38H156.066V9.67518H162.608V20.6566H162.843C163.323 19.3473 164.107 18.3238 165.194 17.5862C166.292 16.8486 167.633 16.4798 169.219 16.4798C170.713 16.4798 172.013 16.8117 173.119 17.4756C174.226 18.1302 175.083 19.0569 175.692 20.2555C176.31 21.4541 176.614 22.8556 176.605 24.46V38H169.842V25.7877C169.851 24.6075 169.556 23.6855 168.956 23.0216C168.357 22.3577 167.513 22.0258 166.425 22.0258C165.715 22.0258 165.088 22.1825 164.544 22.496C164.01 22.8003 163.59 23.2383 163.286 23.8099C162.991 24.3816 162.839 25.0731 162.829 25.8845ZM187.589 25.8845V38H180.826V16.7564H187.258V20.6566H187.493C187.963 19.3565 188.765 18.3377 189.899 17.6C191.033 16.8532 192.384 16.4798 193.952 16.4798C195.445 16.4798 196.741 16.8163 197.838 17.4894C198.944 18.1533 199.802 19.0845 200.41 20.2832C201.028 21.4726 201.332 22.8648 201.323 24.46V38H194.56V25.7877C194.569 24.6075 194.27 23.6855 193.661 23.0216C193.062 22.3577 192.227 22.0258 191.158 22.0258C190.448 22.0258 189.821 22.1825 189.277 22.496C188.742 22.8003 188.327 23.2383 188.032 23.8099C187.746 24.3816 187.599 25.0731 187.589 25.8845ZM215.413 46.4089C213.394 46.4089 211.665 46.1277 210.227 45.5653C208.788 45.0028 207.659 44.2329 206.838 43.2556C206.017 42.2782 205.524 41.1718 205.358 39.9363L211.762 39.5767C211.882 40.01 212.103 40.3881 212.426 40.7108C212.758 41.0335 213.186 41.2824 213.712 41.4576C214.247 41.6328 214.874 41.7204 215.593 41.7204C216.727 41.7204 217.663 41.4438 218.4 40.8906C219.147 40.3466 219.521 39.3923 219.521 38.0277V34.2934H219.286C219.018 34.9481 218.612 35.5336 218.068 36.0499C217.524 36.5662 216.847 36.9719 216.035 37.267C215.233 37.562 214.311 37.7096 213.269 37.7096C211.72 37.7096 210.3 37.35 209.009 36.6308C207.728 35.9024 206.7 34.7775 205.925 33.2561C205.16 31.7256 204.777 29.757 204.777 27.3505C204.777 24.8703 205.174 22.828 205.967 21.2236C206.76 19.6101 207.797 18.416 209.079 17.6415C210.369 16.867 211.757 16.4798 213.242 16.4798C214.357 16.4798 215.312 16.6734 216.104 17.0607C216.907 17.4387 217.566 17.9274 218.082 18.5267C218.599 19.126 218.99 19.7484 219.258 20.3938H219.451V16.7564H226.187V38.083C226.187 39.8809 225.735 41.3977 224.832 42.6332C223.928 43.8687 222.665 44.8046 221.042 45.4408C219.419 46.0862 217.543 46.4089 215.413 46.4089ZM215.62 32.7859C216.441 32.7859 217.142 32.5692 217.723 32.1359C218.304 31.7025 218.751 31.0802 219.064 30.2688C219.378 29.4574 219.534 28.4846 219.534 27.3505C219.534 26.198 219.378 25.2068 219.064 24.377C218.76 23.5379 218.313 22.8925 217.723 22.4407C217.142 21.9889 216.441 21.763 215.62 21.763C214.781 21.763 214.071 21.9935 213.491 22.4545C212.91 22.9156 212.467 23.5656 212.163 24.4046C211.868 25.2345 211.72 26.2164 211.72 27.3505C211.72 28.4846 211.872 29.4574 212.177 30.2688C212.481 31.0802 212.919 31.7025 213.491 32.1359C214.071 32.5692 214.781 32.7859 215.62 32.7859ZM240.429 38.4011C238.207 38.4011 236.289 37.9631 234.675 37.0872C233.071 36.202 231.836 34.9435 230.969 33.3115C230.111 31.6703 229.683 29.7202 229.683 27.4612C229.683 25.2667 230.116 23.3489 230.983 21.7077C231.849 20.0573 233.071 18.7756 234.648 17.8628C236.224 16.9408 238.082 16.4798 240.221 16.4798C241.734 16.4798 243.117 16.7149 244.371 17.1851C245.624 17.6554 246.708 18.3515 247.621 19.2735C248.534 20.1956 249.243 21.3343 249.751 22.6897C250.258 24.0358 250.511 25.5802 250.511 27.3229V29.0102H232.048V25.0823H244.218C244.209 24.3631 244.039 23.7223 243.707 23.1599C243.375 22.5975 242.918 22.1595 242.337 21.846C241.766 21.5233 241.107 21.3619 240.36 21.3619C239.604 21.3619 238.926 21.5325 238.327 21.8737C237.727 22.2056 237.252 22.662 236.902 23.2429C236.552 23.8145 236.367 24.4646 236.349 25.193V29.19C236.349 30.0567 236.519 30.8174 236.861 31.472C237.202 32.1174 237.686 32.6199 238.313 32.9795C238.94 33.3391 239.687 33.5189 240.553 33.5189C241.153 33.5189 241.697 33.4359 242.185 33.27C242.674 33.104 243.094 32.8597 243.444 32.537C243.794 32.2142 244.057 31.8178 244.232 31.3475L250.442 31.5273C250.184 32.9196 249.617 34.1321 248.741 35.1648C247.874 36.1882 246.736 36.9858 245.325 37.5574C243.914 38.1199 242.282 38.4011 240.429 38.4011Z" fill="white"/>
<g clip-path="url(#clip0_27_196)">
<path d="M74.3027 0H103.756L78.3191 42.8413H48.8657L74.3027 0Z" fill="white"/>
<path d="M47.5269 0H68.9475L43.5105 42.8413H22.0898L47.5269 0Z" fill="white"/>
<path d="M26.1065 0H42.1719L16.7349 42.8413H0.669434L26.1065 0Z" fill="white"/>
</g>
<defs>
<clipPath id="clip0_27_196">
<rect width="104.426" height="42.8413" fill="white"/>
</clipPath>
</defs>
</svg>
