<svg width="27" height="27" viewBox="0 0 27 27" fill="none" xmlns="http://www.w3.org/2000/svg">
<path d="M22.7446 2.22232H3.9224C3.71082 2.21938 3.50073 2.25815 3.30414 2.33642C3.10754 2.41468 2.92829 2.5309 2.77662 2.67845C2.62494 2.82599 2.50382 3.00197 2.42016 3.19633C2.33651 3.3907 2.29196 3.59963 2.28906 3.81121V22.8557C2.29196 23.0672 2.33651 23.2762 2.42016 23.4705C2.50382 23.6649 2.62494 23.8409 2.77662 23.9884C2.92829 24.136 3.10754 24.2522 3.30414 24.3305C3.50073 24.4087 3.71082 24.4475 3.9224 24.4445H22.7446C22.9562 24.4475 23.1663 24.4087 23.3629 24.3305C23.5595 24.2522 23.7387 24.136 23.8904 23.9884C24.0421 23.8409 24.1632 23.6649 24.2469 23.4705C24.3305 23.2762 24.3751 23.0672 24.378 22.8557V3.81121C24.3751 3.59963 24.3305 3.3907 24.2469 3.19633C24.1632 3.00197 24.0421 2.82599 23.8904 2.67845C23.7387 2.5309 23.5595 2.41468 23.3629 2.33642C23.1663 2.25815 22.9562 2.21938 22.7446 2.22232ZM8.98906 20.8223H5.65573V10.8223H8.98906V20.8223ZM7.3224 9.42232C6.86269 9.42232 6.42181 9.2397 6.09674 8.91464C5.77168 8.58958 5.58906 8.1487 5.58906 7.68899C5.58906 7.22928 5.77168 6.7884 6.09674 6.46334C6.42181 6.13827 6.86269 5.95566 7.3224 5.95566C7.5665 5.92797 7.8137 5.95216 8.04781 6.02664C8.28192 6.10111 8.49766 6.2242 8.6809 6.38784C8.86415 6.55147 9.01076 6.75197 9.11114 6.97619C9.21153 7.20042 9.26342 7.44332 9.26342 7.68899C9.26342 7.93466 9.21153 8.17756 9.11114 8.40179C9.01076 8.62601 8.86415 8.82651 8.6809 8.99014C8.49766 9.15378 8.28192 9.27686 8.04781 9.35134C7.8137 9.42582 7.5665 9.45001 7.3224 9.42232ZM21.0113 20.8223H17.678V15.4557C17.678 14.1112 17.2002 13.2334 15.9891 13.2334C15.6142 13.2362 15.2493 13.3537 14.9433 13.5703C14.6374 13.7868 14.4052 14.092 14.278 14.4445C14.191 14.7057 14.1533 14.9807 14.1668 15.2557V20.8112H10.8335C10.8335 20.8112 10.8335 11.7223 10.8335 10.8112H14.1668V12.2223C14.4697 11.6969 14.9101 11.264 15.4407 10.9703C15.9713 10.6766 16.5719 10.5333 17.178 10.5557C19.4002 10.5557 21.0113 11.989 21.0113 15.0668V20.8223Z" fill="white"/>
</svg>
