<svg width="73" height="49" viewBox="0 0 73 49" fill="none" xmlns="http://www.w3.org/2000/svg">
<path d="M46.8676 24C46.8676 36.4264 36.794 46.5 24.3676 46.5C11.9413 46.5 1.86768 36.4264 1.86768 24C1.86768 11.5736 11.9413 1.5 24.3676 1.5C36.794 1.5 46.8676 11.5736 46.8676 24Z" fill="#68DBFF"/>
<path d="M71.1326 24C71.1326 36.4264 61.1576 46.5 48.8531 46.5C36.5486 46.5 26.5737 36.4264 26.5737 24C26.5737 11.5736 36.5486 1.5 48.8531 1.5C61.1576 1.5 71.1326 11.5736 71.1326 24Z" fill="#FF7917"/>
<path d="M36.6707 42.8418C42.8111 38.8241 46.8678 31.886 46.8678 24.0002C46.8678 16.1146 42.8111 9.17629 36.6707 5.15869C30.5906 9.17629 26.5737 16.1146 26.5737 24.0002C26.5737 31.886 30.5906 38.8241 36.6707 42.8418Z" fill="#5D2C02"/>
</svg>
