<svg width="42" height="38" viewBox="0 0 42 38" fill="none" xmlns="http://www.w3.org/2000/svg">
<g clip-path="url(#clip0_98_142)">
<path d="M5.74644 28.7259C7.28661 29.8002 9.78372 29.8002 11.3239 28.7259C12.864 27.6516 12.864 25.9098 11.3239 24.8355C9.78372 23.7612 7.28661 23.7612 5.74644 24.8355C4.20627 25.9098 4.20627 27.6516 5.74644 28.7259Z" fill="#25CAAC"/>
<path d="M21.7322 14.1369C24.0425 15.7483 27.7881 15.7483 30.0984 14.1369C32.4086 12.5254 32.4086 9.91278 30.0984 8.30135C27.7881 6.68991 24.0425 6.68991 21.7322 8.30135C19.422 9.91278 19.422 12.5254 21.7322 14.1369Z" fill="#25CAAC"/>
<path d="M13.2466 21.4316C15.1718 22.7744 18.2932 22.7744 20.2184 21.4316C22.1436 20.0887 22.1436 17.9115 20.2184 16.5686C18.2932 15.2258 15.1718 15.2258 13.2466 16.5686C11.3214 17.9115 11.3214 20.0887 13.2466 21.4316Z" fill="#25CAAC"/>
<path d="M0.866345 20.4591C2.02147 21.2648 3.8943 21.2648 5.04943 20.4591C6.20455 19.6534 6.20455 18.3471 5.04943 17.5413C3.8943 16.7356 2.02147 16.7356 0.866345 17.5413C-0.288782 18.3471 -0.288781 19.6534 0.866345 20.4591Z" fill="#25CAAC"/>
<path d="M13.2466 5.87008C15.1718 7.21294 18.2932 7.21294 20.2184 5.87008C22.1436 4.52722 22.1436 2.35001 20.2184 1.00715C18.2932 -0.335716 15.1718 -0.335717 13.2466 1.00715C11.3214 2.35001 11.3214 4.52722 13.2466 5.87008Z" fill="#25CAAC"/>
<path d="M5.74643 13.1643C7.2866 14.2386 9.78371 14.2386 11.3239 13.1643C12.864 12.09 12.864 10.3482 11.3239 9.27398C9.78371 8.19969 7.2866 8.19969 5.74643 9.27398C4.20626 10.3482 4.20627 12.09 5.74643 13.1643Z" fill="#25CAAC"/>
<path d="M13.2466 36.9931C15.1718 38.3359 18.2932 38.3359 20.2184 36.9931C22.1436 35.6502 22.1436 33.473 20.2184 32.1301C18.2932 30.7873 15.1718 30.7873 13.2466 32.1301C11.3214 33.473 11.3214 35.6502 13.2466 36.9931Z" fill="#25CAAC"/>
<path d="M31.9011 21.9177C34.2114 23.5291 37.9571 23.5291 40.2673 21.9177C42.5776 20.3063 42.5776 17.6936 40.2673 16.0822C37.9571 14.4707 34.2114 14.4707 31.9011 16.0822C29.5909 17.6936 29.5909 20.3063 31.9011 21.9177Z" fill="#25CAAC"/>
<path d="M21.7322 29.6983C24.0425 31.3098 27.7881 31.3098 30.0984 29.6983C32.4086 28.0869 32.4086 25.4743 30.0984 23.8628C27.7881 22.2514 24.0425 22.2514 21.7322 23.8628C19.422 25.4743 19.422 28.0869 21.7322 29.6983Z" fill="#25CAAC"/>
</g>
<defs>
<clipPath id="clip0_98_142">
<rect width="42" height="38" fill="white"/>
</clipPath>
</defs>
</svg>
