<svg width="28" height="27" viewBox="0 0 28 27" fill="none" xmlns="http://www.w3.org/2000/svg">
<path d="M16.5111 18.7412C15.7531 19.297 14.814 19.548 13.8798 19.4443C12.9467 19.5482 12.0087 19.2976 11.2518 18.7422C11.0431 18.5351 10.7609 18.419 10.4668 18.4194C10.1728 18.4198 9.89088 18.5367 9.68281 18.7445C9.47475 18.9523 9.35747 19.234 9.35665 19.5281C9.35583 19.8221 9.47153 20.1045 9.67843 20.3134C10.253 20.808 10.9207 21.1825 11.6423 21.4149C12.3638 21.6473 13.1246 21.7328 13.8798 21.6665C14.635 21.7325 15.3958 21.6469 16.1175 21.4148C16.8392 21.1826 17.5072 20.8085 18.0823 20.3145C18.186 20.2114 18.2683 20.0889 18.3246 19.954C18.3808 19.819 18.4099 19.6743 18.4102 19.5281C18.4104 19.3819 18.3819 19.2371 18.3261 19.1019C18.2703 18.9668 18.1884 18.844 18.0851 18.7405C17.9818 18.6371 17.8591 18.555 17.724 18.499C17.5889 18.4431 17.4442 18.4143 17.298 18.4143C17.1518 18.4144 17.007 18.4433 16.872 18.4994C16.737 18.5555 16.6143 18.6376 16.5111 18.7412L16.5111 18.7412ZM10.7226 16.6683C10.9423 16.6683 11.1571 16.603 11.3398 16.4809C11.5225 16.3588 11.6649 16.1852 11.7489 15.9821C11.8329 15.7791 11.8549 15.5557 11.8119 15.3401C11.769 15.1246 11.6631 14.9267 11.5077 14.7713C11.3522 14.616 11.1542 14.5102 10.9387 14.4674C10.7231 14.4246 10.4997 14.4467 10.2967 14.5308C10.0937 14.615 9.92024 14.7574 9.7982 14.9402C9.67617 15.123 9.61106 15.3378 9.61113 15.5576C9.61145 15.8522 9.72867 16.1346 9.93706 16.3429C10.1454 16.5511 10.428 16.6682 10.7226 16.6683ZM17.3892 14.4461C17.1695 14.4461 16.9546 14.5112 16.7719 14.6332C16.5891 14.7552 16.4467 14.9287 16.3625 15.1317C16.2783 15.3347 16.2563 15.5581 16.2991 15.7737C16.3419 15.9892 16.4477 16.1872 16.603 16.3427C16.7583 16.4981 16.9563 16.604 17.1718 16.6469C17.3873 16.6899 17.6108 16.6679 17.8138 16.5839C18.0169 16.4999 18.1904 16.3575 18.3126 16.1748C18.4347 15.9921 18.5 15.7773 18.5 15.5576C18.4997 15.263 18.3826 14.9806 18.1744 14.7722C17.9661 14.5639 17.6838 14.4466 17.3892 14.4461ZM26.0554 13.089C26.0574 12.2078 25.7816 11.3484 25.2672 10.633C24.7528 9.91754 24.0259 9.38245 23.1899 9.10379C22.354 8.82513 21.4514 8.81708 20.6106 9.08078C19.7698 9.34449 19.0336 9.86652 18.5065 10.5727C17.3959 10.29 16.2613 10.112 15.1175 10.041L16.0684 3.70212L18.3879 4.49083C18.3984 5.37319 18.7588 6.21527 19.3898 6.83211C20.0209 7.44895 20.8709 7.7901 21.7533 7.78063C22.6357 7.77116 23.4782 7.41184 24.0958 6.7816C24.7135 6.15136 25.0557 5.30174 25.0473 4.41935V4.39437C25.0261 3.52162 24.6666 2.69127 24.0446 2.07863C23.4227 1.46599 22.587 1.11901 21.714 1.11095C21.2131 1.11469 20.7196 1.23215 20.2707 1.45446C19.8219 1.67677 19.4293 1.99813 19.1228 2.39428L15.5248 1.17063C15.3708 1.11793 15.2071 1.09975 15.0453 1.11736C14.8835 1.13497 14.7275 1.18794 14.5885 1.27253C14.4494 1.35712 14.3307 1.47125 14.2407 1.60684C14.1506 1.74243 14.0915 1.89615 14.0675 2.05713L12.8714 10.0298C11.619 10.0847 10.3754 10.2666 9.1598 10.5727C8.5161 9.70443 7.56152 9.11879 6.49584 8.93835C5.43017 8.75792 4.336 8.99666 3.44236 9.60462C2.54871 10.2126 1.92484 11.1426 1.70134 12.2001C1.47783 13.2576 1.672 14.3605 2.24322 15.2781C1.83381 16.048 1.61686 16.9056 1.61091 17.7776C1.61091 22.1385 6.9798 25.5554 13.8331 25.5554C20.6865 25.5554 26.0554 22.1385 26.0554 17.7776C26.0494 16.9059 25.8326 16.0486 25.4235 15.2788C25.8318 14.621 26.0504 13.8632 26.0554 13.089ZM21.714 3.33317C21.9337 3.33317 22.1486 3.39834 22.3313 3.52043C22.514 3.64252 22.6564 3.81605 22.7405 4.01908C22.8246 4.22211 22.8466 4.44552 22.8037 4.66105C22.7609 4.87659 22.6551 5.07457 22.4997 5.22996C22.3443 5.38535 22.1463 5.49117 21.9308 5.53405C21.7152 5.57692 21.4918 5.55491 21.2888 5.47082C21.0858 5.38672 20.9122 5.24431 20.7901 5.06158C20.668 4.87886 20.6029 4.66404 20.6029 4.44428C20.6077 4.15109 20.7263 3.87125 20.9336 3.6639C21.1409 3.45656 21.4208 3.33796 21.714 3.33317ZM5.81121 11.111C6.15652 11.1152 6.49455 11.2109 6.7909 11.3882C5.7184 11.8494 4.72546 12.4771 3.8488 13.2481C3.84435 13.1949 3.83313 13.1425 3.83313 13.089C3.8338 12.5646 4.04242 12.0619 4.41324 11.6911C4.78405 11.3202 5.2868 11.1116 5.81121 11.111ZM13.8331 23.3332C8.41212 23.3332 3.83313 20.7887 3.83313 17.7776C3.83313 14.7665 8.41212 12.2221 13.8331 12.2221C19.2541 12.2221 23.8331 14.7665 23.8331 17.7776C23.8331 20.7887 19.2541 23.3332 13.8331 23.3332ZM23.8175 13.2481C22.9408 12.4771 21.9479 11.8494 20.8754 11.3882C21.1717 11.2109 21.5097 11.1152 21.8551 11.111C22.3795 11.1116 22.8822 11.3202 23.253 11.6911C23.6238 12.0619 23.8325 12.5646 23.8331 13.089C23.8331 13.1425 23.8219 13.195 23.8175 13.2481Z" fill="white"/>
</svg>
